<?xml version="1.0" encoding="UTF-8"?>
<svg id="Layer_1" data-name="Layer 1" xmlns="http://www.w3.org/2000/svg" viewBox="0 0 500 300">
  <defs>
    <style>
      .cls-1 {
        fill: #c18cbe;
        stroke: #231f20;
        stroke-miterlimit: 10;
        stroke-width: 2px;
      }

      .cls-2 {
        fill: #a2c13e;
      }

      .cls-2, .cls-3 {
        stroke-width: 0px;
      }

      .cls-3 {
        fill: #231f20;
      }
    </style>
  </defs>
  <rect class="cls-2" y=".21" width="500" height="299.58"/>
  <path class="cls-1" d="m209.14,70.38c3.06-1.57,4.81-5.43,4.93-8.57.23-6.23-6.04-8.57-4.93-12.85.96-3.67,5.83-3.01,8.14-7.92,1.96-4.19-.28-7.42,1.5-8.57,2.13-1.37,7.62,1.79,10.28,6.21,1.34,2.22.63,2.55,2.57,9.21,1.76,6.04,2.8,7.37,1.92,8.88-1.65,2.81-6.87.88-8.11,3.29-1.26,2.45,2.24,8.07,7.18,10.25,4.27,1.88,6.26-.3,10.59,1.57,4.83,2.1,3.76,5.44,7.82,7.7,6.85,3.79,13.18-3.87,22.59.01,1.29.53,5.14,2.12,5.57,5.14.26,1.81-.74,3.95-2.36,4.93-3,1.81-6-1.64-12.21-3-9.75-2.14-13.87,3.85-19.49.43-3.85-2.35-2.98-5.81-7.5-7.92-3.82-1.78-8.91-1.39-9.78.55-1.17,2.61,6.19,5.95,5.71,11.44-.26,3.01-2.6,3.34-5.23,7.45-.28.44-6.2,9.99-2.26,19.12.59,1.37,3.3,7.11,8.78,8.77,4.7,1.43,7.04-1.47,10.49.43,4.17,2.29,2.46,7.45,6.43,9.42,3.42,1.7,5.7-1.62,11.78,0,1.55.42,4.05,1.12,5.57,3.43.97,1.47,1.96,4.23.64,6.21-1.6,2.41-5.47,1.99-6,1.93-4.11-.5-4.38-3.67-8.66-4.74-4.1-1.03-5.61,1.45-8.26.03-3.49-1.87-2.02-6.74-5.14-8.35-3.34-1.73-6.33,3.17-11.14,2.14-4.11-.88-6.43-5.44-9.37-11.22-1.4-2.76-3.07-6.04-3.69-10.63-1.22-9.03,2.75-14.88,1.07-15.85-1.44-.83-5.67,2.69-8.14,6.85-2.22,3.74-1.42,5.31-3.86,12.21-1.67,4.74-2.51,7.11-4.28,9-3.59,3.82-9.37,5.43-14.14,5.14-4.7-.28-6.18-2.28-10-1.24-2.07.56-5.56,2.2-5.85,4.67-.33,2.85,3.95,3.72,7.07,9.42,1.06,1.94,3.43,6.28,1.5,9.21-1.47,2.23-5.13,3.19-7.37,1.96-2.09-1.15-1.9-3.63-3.13-7.96-2.71-9.55-7.44-10.73-6.43-14.99.75-3.14,3.86-4.81,10.07-8.14,4.62-2.48,7.48-4.01,11.35-3.86,5.55.22,7.66,3.69,10.49,2.36,1.72-.81,2.17-2.66,3.64-8.57,3.54-14.18,3.78-14.74,4.43-15.63,4.42-6.02,11.56-4.6,12.28-8.79.57-3.36-3.58-6.88-5.57-8.57-2.84-2.41-5.7-3.38-7.71-4.07-3.54-1.21-5.32-1.81-7.18-1.22-3.89,1.23-2.93,5.7-6.96,8.08-4.55,2.68-8.79-1.21-12.43,1.85-2.45,2.06-1.79,4.86-3.85,5.43-2.2.61-5.64-1.86-6-4.71-.44-3.48,3.86-6.12,4.71-6.64,5.28-3.24,8.61.05,13.71-2.57,5.36-2.75,3.87-7.52,8.57-9.42,5.81-2.36,10.39,3.97,15.63,1.29Zm-55.26,80.1"/>
  <g>
    <path class="cls-3" d="m153.11,157.08c7.15-.5,6.65,7.02,11.03,9.28,4.39,2.38,7.52-1.51,11.79.5,7.15,3.26,5.14,13.42-1,13.42-3.01,0-3.89-2.76-6.02-2.76-1.88,0-4.51,1.76-6.77,1.76-4.89,0-.13-9.91-6.14-9.91-2.63,0-3.89,1.26-3.89,3.76,0,7.4,5.64,10.28,13.67,13.42,8.03,3.13,12.66,10.66,12.66,17.68,0,4.52-1,8.78-4.64,10.16-2.76,1.13-4.89-.38-7.02,1.88-2.13,2.01-4.01,8.9-10.91,8.9-8.03,0-6.39-9.65-16.93-9.65-7.9,0-9.28-5.02-9.28-8.03,0-4.52,3.38-9.15,7.77-9.15,8.15,0,4.52,11.04,10.16,11.04,2.38,0,3.51-3.26,6.9-3.26,3.89,0,4.14,3.64,8.78,2.63,2.13-.5,3.76-3.89,3.76-7.65,0-7.15-4.51-9.28-11.03-10.53-7.65-1.5-17.43-4.14-17.43-12.66,0-6.77,4.64-6.9,6.77-10.66,1.76-3.14,1.38-9.66,7.78-10.16Z"/>
    <path class="cls-3" d="m177.88,178.89c2.63-7.4,16.18-6.52,17.68-17.18,1.26-8.78,4.01-11.41,8.03-11.41s6.27,2.88,5.89,8.03c-.5,6.27,2.13,6.27,4.01,4.89,2.13-1.63,3.26-5.52,8.15-5.52,2.88,0,5.02,2.01,6.02,6.14.63,2.76-.25,4.64.25,8.28.75,5.27,5.39,9.03,5.39,14.92,0,5.52-2.51,5.52-4.77,9.53-2.26,4.01-3.26,11.41-8.78,11.41s-6.65-7.53-9.91-8.15c-2.38-.5-4.64,1.38-4.64,5.27,0,5.14,2.13,8.15,1.63,12.54-.88,7.52-9.9,11.54-7.02,16.43,2.38,3.76,5.77.63,9.15.75,2.88,0,4.77,2.13,4.77,5.52-.13,3.01-4.26,8.15-12.29,6.9-9.91-1.63-11.54,3.64-18.43,4.39-3.76.5-7.02-1.88-5.77-5.89,1.76-5.27,8.4-4.01,11.54-9.66,1.76-3.01,1.13-6.77,2.38-11.04,1.38-5.39,4.51-7.15,5.02-14.04.38-5.14-2.13-8.28-2.13-13.42,0-8.78,9.53-9.28,9.53-18.18,0-4.51-1.88-5.64-4.39-5.27-4.89.75-9.9,10.28-15.05,11.41-4.77,1-7.77-2.51-6.27-6.65Zm34.99-9.53c-2.26-.38-4.64,1.63-3.51,4.64,1.51,3.89,3.51,8.53,3.51,13.54,0,4.26,2.88,7.77,5.14,7.77,3.13,0,6.27-3.13,6.02-7.4-.25-5.14-3.39-5.64-4.77-8.78-1.63-3.64-1.25-8.9-6.39-9.78Z"/>
    <path class="cls-3" d="m233.91,202.28c-5.39,0-6.52-7.15-2.51-9.78,3.01-2.13,8.65-1.51,11.29-5.27,1.63-2.26,1.13-7.52,3.13-13.17,1.51-4.14,5.02-9.66,13.17-9.66,6.52,0,9.91,4.64,9.91,10.53,0,14.67-21.19,25.33-21.19,32.85,0,2.38,1.51,4.01,3.76,4.01,6.02,0,12.54-11.16,21.32-11.16,4.77,0,8.53,3.51,8.53,8.9s-3.51,7.78-6.65,7.78c-3.76,0-4.14-3.26-7.65-3.26-7.4,0-10.03,12.66-20.57,12.66-5.77,0-8.9-3.64-8.9-8.4,0-6.52,4.39-10.53,4.39-14.04,0-1.76-.88-3.26-2.51-3.26-1.38,0-2.88,1.26-5.52,1.26Zm24.04-23.92c0-1.63-.63-2.88-2.13-2.88-2.26,0-5.27,5.89-5.27,9.4,0,1.5.5,2.51,2.01,2.51,2.51,0,5.39-5.39,5.39-9.03Z"/>
    <path class="cls-3" d="m313.16,194.15c-5.39,0-6.52-7.15-2.51-9.78,3.01-2.13,8.65-1.51,11.29-5.27,1.63-2.26,1.13-7.52,3.13-13.17,1.51-4.14,5.02-9.66,13.17-9.66,6.52,0,9.91,4.64,9.91,10.53,0,14.67-21.19,25.33-21.19,32.85,0,2.38,1.51,4.01,3.76,4.01,6.02,0,12.54-11.16,21.32-11.16,4.77,0,8.53,3.51,8.53,8.9s-3.51,7.78-6.65,7.78c-3.76,0-4.14-3.26-7.65-3.26-7.4,0-10.03,12.66-20.57,12.66-5.77,0-8.9-3.64-8.9-8.4,0-6.52,4.39-10.53,4.39-14.04,0-1.76-.88-3.26-2.51-3.26-1.38,0-2.88,1.26-5.52,1.26Zm25.71-24.83c0-1.63-.63-2.88-2.13-2.88-2.26,0-5.27,5.89-5.27,9.4,0,1.5.5,2.51,2.01,2.51,2.51,0,5.39-5.39,5.39-9.03Z"/>
    <path class="cls-3" d="m315.3,130.49c5.27.38,3.13,5.52,3.76,7.77.63,2.38,2.88,4.01,2.63,7.52-.38,5.02-5.64,7.15-7.4,12.29-1,3.01-.25,5.39-1.25,9.4-1.26,4.77-8.53,13.29-9.78,20.31-.63,3.64.88,6.77,1.26,9.78.5,3.89-2.76,9.03-.63,11.79,1.88,2.38,5.64-1.38,9.91-.63,6.27,1.13,6.52,9.78.13,11.41-3.89,1-6.65-.63-10.28.25s-5.39,2.63-8.28,3.14c-2.88.5-4.64-.38-7.27,0-2.63.38-5.39,3.64-9.65,2.88-5.52-1-4.26-9.65.38-11.91,3.89-1.88,10.41-.38,12.92-3.76,2.13-2.88-1.38-8.03-.75-11.41.63-3.39,3.51-3.89,4.39-7.15,1.51-5.77-.38-10.78.63-16.55,1-5.64,9.28-17.68,11.91-22.2,2.63-4.51-.37-9.91-3.51-5.89-3.26,4.14-4.26,7.52-7.02,8.53-2.88,1-3.39-.88-5.27-.12-2.01.75-3.14,2.51-4.89,1.88-3.01-1.13-3.64-8.53,2.51-12.29,5.14-3.14,8.4-2.63,12.04-5.02,4.89-3.26,7.9-10.41,13.54-10.03Z"/>
    <path class="cls-3" d="m360.37,174.81c5.64-5.52,3.76-12.04,11.66-12.04,8.4,0,4.64,7.65,11.66,8.78,4.27.63,8.03-1,10.91,1.51,3.51,3.13,1.88,7.27,3.26,9.53,1.76,2.88,2.63,6.14,1.88,10.78-1,5.27-4.51,8.65-8.9,10.66-8.03,3.76-7.15,15.3-20.31,15.3-7.65,0-7.52-5.27-10.53-7.27-2.76-1.88-6.27-1.38-8.15-3.89-1.26-1.76-.75-6.65-.75-10.16,0-3.76-1.88-10.41-.25-13.79,1.88-4.26,5.64-5.52,9.53-9.4Zm7.27,5.39c-4.89,0-8.02,7.9-8.02,14.55s3.89,10.03,8.53,10.03c4.39,0,8.28-3.51,11.66-4.89,2.76-1.13,9.78-5.14,9.78-10.41,0-4.01-2.88-7.52-6.39-7.52-2.01,0-3.76,1.13-5.77,1.13-4.14,0-6.02-2.88-9.78-2.88Z"/>
  </g>
</svg>