<?xml version="1.0" encoding="UTF-8"?>
<svg id="Layer_8" data-name="Layer 8" xmlns="http://www.w3.org/2000/svg" viewBox="0 0 500 300">
  <defs>
    <style>
      .cls-1 {
        fill: #231f20;
      }

      .cls-1, .cls-2 {
        stroke-width: 0px;
      }

      .cls-2 {
        fill: #ed2024;
      }
    </style>
  </defs>
  <rect class="cls-2" x=".47" width="499.53" height="300"/>
  <g>
    <path class="cls-1" d="m18.65,169.65l12.91-16.78c6.33,5.04,17.3,9.55,25.3,9.55,2.97,0,4.13-1.16,4.13-2.45,0-2.32-2.19-3.48-10.97-6.71-11.36-4.13-19.23-9.29-19.23-20.4,0-14.07,11.88-25.3,33.05-25.3,14.2,0,26.21,4.26,33.31,9.68l-12.91,16.78c-5.42-3.74-14.46-7.49-21.43-7.49-3.23,0-4.65.9-4.65,2.32,0,1.94,1.55,2.71,10.2,5.81,11.23,4,20.01,8.91,20.01,21.3,0,11.75-8.26,25.43-32.01,25.43-16.01,0-29.04-5.16-37.69-11.75Z"/>
    <path class="cls-1" d="m101.34,126.87h29.3l-1.94,7.23c5.03-5.16,12.65-8.91,20.14-8.91,12.52,0,23.11,10.07,23.11,27.5,0,25.69-16.39,46.34-37.05,46.34-10.07,0-16.65-4.52-20.65-10.71l-8,29.69h-29.3l24.4-91.14Zm41.44,32.27c0-6.07-4-10.07-9.42-10.07-8,0-13.81,7.62-13.81,15.88,0,6.07,4,10.07,9.42,10.07,8,0,13.81-7.62,13.81-15.88Z"/>
    <path class="cls-1" d="m210.82,184.62c4.78,0,9.3-1.94,14.2-5.68l13.55,14.85c-8,7.1-17.82,11.49-30.21,11.49-21.43,0-34.6-12.52-34.6-30.98,0-21.43,16.01-42.86,42.86-42.86,23.24,0,30.98,15.75,30.98,30.59,0,4.65-.77,9.17-2.07,13.17h-45.31c.39,5.68,4,9.42,10.58,9.42Zm11.1-22.33c.39-1.03.52-2.07.52-3.1,0-3.87-2.84-7.49-7.62-7.49-4.39,0-10.07,2.71-12.78,10.58h19.88Z"/>
    <path class="cls-1" d="m333.49,157.95c4.78,0,9.3-1.94,14.2-5.68l13.55,14.85c-8,7.1-17.82,11.49-30.21,11.49-21.43,0-34.6-12.52-34.6-30.98,0-21.43,16.01-42.86,42.86-42.86,23.24,0,30.98,15.75,30.98,30.59,0,4.65-.77,9.17-2.07,13.17h-45.31c.39,5.68,4,9.42,10.58,9.42Zm11.1-22.33c.39-1.03.52-2.07.52-3.1,0-3.87-2.84-7.49-7.62-7.49-4.39,0-10.07,2.71-12.78,10.58h19.88Z"/>
    <path class="cls-1" d="m271.13,73.81h29.3s-25.3,152.37-25.3,152.37h-29.3s25.3-152.37,25.3-152.37Z"/>
    <path class="cls-1" d="m353.53,188.31c0-17.32,29.18-32.98,69.66-32.98,36.64,0,58.15,11.62,58.15,26.34,0,17.32-29.18,32.98-69.66,32.98-36.64,0-58.16-11.62-58.16-26.34Zm82.23-7.89c0-3.44-6.18-5.91-15.55-5.91-12.14,0-21.09,4.34-21.09,9.19,0,3.44,6.18,5.91,15.55,5.91,12.14,0,21.09-4.34,21.09-9.19Z"/>
  </g>
</svg>