<?xml version="1.0" encoding="UTF-8"?>
<svg id="Layer_10" data-name="Layer 10" xmlns="http://www.w3.org/2000/svg" viewBox="0 0 500 300">
  <defs>
    <style>
      .cls-1 {
        fill: #fff;
        stroke: #000;
        stroke-miterlimit: 10;
        stroke-width: .5px;
      }

      .cls-2 {
        stroke-width: 0px;
      }
    </style>
  </defs>
  <circle class="cls-2" cx="244.42" cy="140.95" r="80.77"/>
  <g>
    <path class="cls-1" d="m115.71,134.46c4.22,0,7.58,1.19,10.08,3.57.91,1.28,1.37,2.95,1.37,4.99-.14,2.53-.41,4.04-.79,4.53l-9.5-.28c-.38-2.83-1.25-4.25-2.59-4.25-1.68-.04-2.66.64-2.95,2.04-.29,2.15,2.52,3.63,8.42,4.42,2.93.72,4.46,2.55,4.61,5.5.1,1.51-.24,2.81-1.01,3.91-.62,1.1-1.94,2.27-3.96,3.51-2.5,1.1-5.02,1.62-7.56,1.59-3.79-.42-5.98-2.44-6.55-6.06l-.14-3.57c3.07.19,5.88.36,8.42.51l-.36,1.81c-.1.6.22.89.94.85,1.2-.11,1.73-.92,1.58-2.44,0-.49-2.06-1.34-6.19-2.55-2.83-1.02-4.75-2.28-5.76-3.8-.91-1.36-1.37-3.06-1.37-5.1.29-4.38,2.3-7.12,6.05-8.22,2.3-.64,4.73-.96,7.27-.96Z"/>
    <path class="cls-1" d="m148.4,127.55c4.51,0,7.54,2.64,9.07,7.92,1.63,7.31,2.71,15.11,3.24,23.4.24,7.95-3.41,12.58-10.94,13.92-2.93,0-5.21-1.25-6.84-3.74-.82,9.28-1.49,16.18-2.02,20.7l-14.26,1.74c-2.45-8-1.97-16.88,1.44-26.62.86-2.49,1.18-7.71.94-15.66-.19-6.84-.5-12.09-.94-15.74l4.39-.26,3.89-.35c.1,2.55.31,4.44.65,5.65.53-3.19,1.82-5.83,3.89-7.92,2.59-2.03,5.09-3.04,7.49-3.04Zm3.99,28.47c.34-10.21-.92-15.61-3.78-16.18-1.42-.34-2.25.28-2.49,1.85l1.04,13.72c-.2,2.85.38,4.41,1.74,4.68,1.96.25,3.13-1.11,3.5-4.07Z"/>
    <path class="cls-1" d="m168.06,129.94c6.2-1.28,11.31.32,15.3,4.79,1.38,1.87,2.27,3.82,2.69,5.84l.63,6.49.53,2.17c-4.54.25-8.72.84-12.54,1.78-.27.99-.27,2.29-.02,3.9.25,1.61.87,2.39,1.85,2.34,1.05-.22,1.74-1.54,2.08-3.96l9.06-1.2c.57,2.77-.62,5.59-3.58,8.46-2.19,1.53-4.71,2.59-7.56,3.17-6.15,1.27-10.01.4-11.57-2.62-.91-2.12-1.22-4.07-.94-5.87.28-1.8-.3-5.71-1.75-11.73-1.84-5.89-1.43-9.75,1.22-11.57,1.07-.9,2.6-1.56,4.6-1.98Zm2.73,7.7c.1,1.65.86,4.1,2.27,7.34l5.05.09c-1.68-6.6-3.37-9.9-5.05-9.9s-2.37.83-2.27,2.48Z"/>
    <path class="cls-1" d="m211.84,126.45c6.2-1.28,11.31.32,15.3,4.79,1.38,1.87,2.27,3.82,2.69,5.84l.63,6.49.53,2.17c-4.54.25-8.72.84-12.54,1.78-.27.99-.27,2.29-.02,3.9.25,1.61.87,2.39,1.85,2.34,1.05-.22,1.74-1.54,2.08-3.96l9.06-1.2c.57,2.77-.62,5.59-3.58,8.46-2.19,1.53-4.71,2.59-7.56,3.17-6.15,1.27-10.01.4-11.57-2.62-.91-2.12-1.22-4.07-.94-5.87.28-1.8-.3-5.71-1.75-11.73-1.84-5.89-1.43-9.75,1.22-11.57,1.07-.9,2.6-1.56,4.6-1.98Zm2.73,7.7c.1,1.65.86,4.1,2.27,7.34l5.05.09c-1.68-6.6-3.37-9.9-5.05-9.9s-2.37.83-2.27,2.48Z"/>
    <path class="cls-1" d="m192.39,101.13h2.66c2.11,0,4.01.25,5.69.76l-.5,6.96c0,4.98.94,13.49,2.81,25.54v2.04l-.29,7.38v1.44c0,2.21.58,8.29,1.73,18.25v.17c0,.28-2.45.48-7.34.59l-6.91-.34c-.34,0-.6-3.59-.79-10.78,0-2.32.58-7.61,1.73-15.87v-3.65c-1.78-10.92-2.66-19.01-2.66-24.27s.26-7.89.79-7.89l3.1-.34Z"/>
    <path class="cls-1" d="m258.86,125.2c7.64.82,11.98,3.67,13.01,8.57.48,4.13-2.06,9.41-7.64,15.84-5.72,7.15-11.98,10.37-18.8,9.65-2.89-.33-5.3-1.12-7.23-2.34-1.93-1.22-3.27-3.16-4.03-5.8v-8.64c-.69-6.29-.9-9.89-.62-10.8.83-3.41,6.47-5.66,16.94-6.77,2.75-.24,5.54-.14,8.36.29Z"/>
  </g>
  <circle class="cls-2" cx="244.42" cy="140.95" r="8.08"/>
</svg>