<?xml version="1.0" encoding="UTF-8"?>
<svg id="Layer_9" data-name="Layer 9" xmlns="http://www.w3.org/2000/svg" viewBox="0 0 500 300">
  <defs>
    <style>
      .cls-1 {
        fill: #e1499a;
      }

      .cls-1, .cls-2, .cls-3 {
        stroke-width: 0px;
      }

      .cls-2 {
        fill: #ed2024;
      }

      .cls-3 {
        fill: #f7901e;
      }
    </style>
  </defs>
  <rect class="cls-3" x="-.63" y="-.46" width="499.53" height="300"/>
  <rect class="cls-2" x="-.63" y="-.46" width="499.53" height="300"/>
  <circle class="cls-1" cx="248.9" cy="149.97" r="80.77"/>
  <g>
    <path class="cls-2" d="m180.86,106.72c4.37-1.14,8.76-1,12.87.4,1.8.84,3.36,2.1,4.76,3.75,1.61,2.07,2.43,3.34,2.45,3.8-2.82.48-5.66,1.03-8.52,1.64-2.65-2.1-4.62-2.99-5.88-2.66-1.6.38-1.93,1.15-.95,2.26,1.65,1.69,5.46,2.06,11.09,1.52,3.07-.01,5.67,1.19,7.95,3.51,1.19,1.19,1.89,2.27,2.16,3.25.37.96.31,2.07-.08,3.33-.85,1.21-2.08,1.99-3.85,2.38-2.94.31-6.42-.71-10.4-3.18-1.19-.84-2.38-1.68-3.57-2.53,2.64-.57,5.03-1.03,7.17-1.42.43.48.86.96,1.3,1.43.46.47.94.63,1.45.46.81-.3.53-1.02-.86-2.14-.42-.37-2.73-.66-7.21-.64-3.25-.12-6.09-.55-8.45-1.37-2.12-.73-4.22-1.81-6.23-3.25-4.07-3.18-4.72-5.8-1.86-7.75,1.78-1.16,4.02-2.11,6.65-2.8Z"/>
    <path class="cls-2" d="m211.49,94.29c4.99-.63,9.2,1.41,12.3,5.97,3.85,6.36,6.96,13.27,9.8,20.63,2.43,7.09,1.82,11.2-1.53,12.56-1.57.09-3.41-.88-5.71-2.9,4.46,7.91,8.18,13.7,10.65,17.48-1.28.5-2.51,1.03-3.67,1.58-6.91-6.25-14.17-13.05-18.84-21.26-1.2-2.1-4.56-6.36-10.11-12.78-4.77-5.53-8.54-9.76-11.41-12.64,1.46-.39,2.93-.76,4.4-1.12,1.28-.35,2.56-.69,3.84-1.03,1.53,2.13,2.82,3.67,3.83,4.64-1.28-2.77-1.41-5.22-.25-7.35,1.74-2.17,4.08-3.44,6.72-3.78Zm15.11,24.47c-3.73-8.96-6.79-13.62-9.82-13.79-1.49-.13-2.02.51-1.53,1.89,2.4,3.91,4.78,7.82,7.15,11.74,1.17,2.47,2.33,3.77,3.39,3.92,1.47.09,1.69-1.14.8-3.76Z"/>
    <path class="cls-2" d="m233.3,94.61c6.33-1.45,12.06,0,15.82,4.2,1.3,1.75,2.04,3.57,2.33,5.44.09,1.99.18,3.99.26,5.99.11.67.22,1.34.32,2.02-3.57.04-6.88.5-9.75,1.35-.1.9.06,2.08.44,3.55.38,1.47.9,2.19,1.58,2.15.71-.18,1.08-1.37,1.17-3.58,2.22-.32,4.48-.59,6.76-.83.3,2.58-.77,5.11-2.66,7.62-1.4,1.32-2.9,2.2-4.59,2.68-3.62,1.03-6.06.27-7.89-2.41-1.13-1.88-1.89-3.62-2.13-5.24-.26-1.61-1.59-5.12-4.42-10.44-3.19-5.17-3.99-8.64-1.63-10.46.89-.88,2.36-1.57,4.4-2.04Zm3.92,6.89c.33,1.5,1.42,3.7,3.03,6.63,1.45.01,2.88.04,4.31.08-1.83-6.05-3.82-9.05-5.47-9.02-1.59.03-2.22.81-1.88,2.3Z"/>
    <path class="cls-2" d="m279.09,93.21c6.95-.29,11.7,2.13,12.92,6.89.24,1.94-.11,3.84-.95,5.71-1.1,1.96-2.21,3.91-3.33,5.87-.29.67-.58,1.35-.88,2.02-3.61-.6-7.15-.74-10.47-.43-.63.86-1.19,2.03-1.7,3.53-.51,1.5-.43,2.29.26,2.37.81-.05,1.89-1.14,3.31-3.27,2.39.09,4.8.22,7.23.4-1.25,2.56-3.83,4.83-7.23,6.94-2.2,1.03-4.22,1.63-6.19,1.79-4.21.36-6.11-.81-6.26-3.74.04-2.03.37-3.86,1.11-5.48.72-1.62,1.55-5.26,2.05-10.94.07-5.59,1.38-9.11,4.71-10.46,1.38-.7,3.19-1.11,5.43-1.21Zm-.36,7.4c-.58,1.52-.85,3.85-1.04,6.99,1.4.27,2.79.55,4.17.84,1.83-6.21,1.7-9.48.07-9.74-1.56-.25-2.63.4-3.21,1.91Z"/>
    <path class="cls-2" d="m263.1,68.24c1.23.05,2.45.11,3.67.18,2.91.16,5.45.58,7.59,1.22-.89,2.11-1.75,4.22-2.59,6.34-1.36,4.57-2.3,12.49-3.72,23.73-.18.62-.36,1.25-.54,1.87-.74,2.25-1.45,4.5-2.15,6.75-.12.44-.24.88-.36,1.33-.56,2.03-1.53,7.67-3.26,16.92-.01.05-.03.1-.04.16-.07.26-1.51.2-4.37-.05-1.32-.27-2.67-.52-4.03-.76-.19-.02-.16-3.33.18-9.95.18-2.13.89-6.97,2.88-14.51.14-1.12.28-2.24.42-3.36-.45-10.15-.76-17.63-.11-22.47.63-4.85,1.36-7.26,2.09-7.24,1.44-.06,2.88-.11,4.33-.15Z"/>
    <path class="cls-2" d="m324.09,105.89c6.29,3.15,6.87,6.97,2.17,11.02-4.21,3.32-12.24,6.42-22.1,10.13-10.65,4.26-16.12,5.8-19.15,3.93-1.27-.81-2.01-1.91-2.3-3.31-.28-1.4.14-3.33,1.3-5.79,1.8-2.54,3.62-5.08,5.46-7.61,3.49-5.66,5.59-8.88,6.43-9.62,2.88-2.79,9.78-3.66,20.66-1.55,2.8.6,5.35,1.55,7.53,2.8Zm-25.63,5.83c-4.3,5.31-6.42,8.46-6.47,9.44.82.41,3.31-1.43,7.79-5.47,1.13-.96,2.64-2.39,4.55-4.28,1.91-1.88,1.96-3.14.08-3.72-1.74.02-3.72,1.37-5.94,4.03Z"/>
  </g>
  <circle class="cls-2" cx="250" cy="154.93" r="8.08"/>
</svg>