<svg width="3564" height="2488" viewBox="0 0 3564 2488" fill="none" xmlns="http://www.w3.org/2000/svg">
<g clip-path="url(#clip0_2016_184)">
<path d="M3563.61 0.496094H0.665039V2487.01H3563.61V0.496094Z" fill="#FDBB2D"/>
<path d="M579.427 2324.4C535.72 2311.76 502.346 2294.87 479.236 2273.71C456.126 2252.56 443.558 2229.59 441.604 2204.73H581.382C585.291 2222.12 599.116 2236.78 622.924 2248.72C646.732 2260.66 681.083 2266.94 726.047 2267.36C755.999 2267.36 781.274 2264.98 801.801 2260.31C822.328 2255.63 837.479 2249.48 847.253 2242.01C857.028 2234.54 861.915 2226.79 861.915 2218.76C861.287 2210.8 857.168 2204.24 849.697 2199.08C842.226 2193.91 828.821 2189.72 809.621 2186.44C790.42 2183.16 762.493 2180.57 726.047 2178.69C644.568 2174.01 582.987 2161.58 541.236 2141.4C499.484 2121.23 478.328 2094.7 477.7 2061.88C477.7 2040.73 487.824 2021.66 508.002 2004.49C528.179 1987.38 557.015 1973.77 594.508 1963.64C632.001 1953.52 676.475 1948.49 727.932 1948.49C779.389 1948.49 826.657 1954.01 865.755 1965.04C904.854 1976.07 935.784 1991.57 958.615 2011.47C981.446 2031.44 995.41 2054.06 1000.65 2079.41H858.913C853.677 2062.51 839.992 2049.38 817.859 2039.96C795.727 2030.6 765.355 2025.85 726.955 2025.85C702.169 2025.85 681.991 2027.88 666.352 2031.86C650.712 2035.84 639.332 2041.14 632.14 2047.71C624.949 2054.27 621.737 2061.11 622.366 2068.09C624.32 2079.82 633.746 2088.97 650.712 2095.53C667.678 2102.1 695.327 2106.36 733.797 2108.17C802.22 2111.45 856.469 2117.95 896.615 2127.51C936.692 2137.15 965.038 2149.43 981.655 2164.44C998.272 2179.46 1007.21 2197.75 1008.54 2219.32C1009.16 2240.9 999.389 2261.07 979.212 2279.86C959.034 2298.64 928.174 2313.86 886.841 2325.59C845.438 2337.32 794.749 2343.18 734.844 2343.18C674.939 2343.18 623.064 2336.83 579.357 2324.19L579.427 2324.4Z" fill="#231F20" stroke="#FDBB2D" stroke-miterlimit="10"/>
<path d="M1028.08 1961.83H1172.75L1173.73 2487.01H1029.06L1028.08 1961.83ZM1240.27 2317.35C1203.75 2299.96 1175.4 2276.29 1155.23 2246.27C1135.05 2216.25 1124.92 2182.88 1124.92 2146.29C1125.55 2110.19 1137 2077.1 1159.14 2047.01C1181.27 2016.99 1211.43 1993.04 1249.55 1975.16C1287.67 1957.36 1329.84 1948.42 1376.13 1948.42C1421.73 1948.42 1462.78 1957.08 1499.29 1974.47C1535.81 1991.85 1564.65 2015.52 1585.8 2045.54C1606.96 2075.56 1617.57 2109.15 1617.57 2146.22C1617.57 2182.39 1606.19 2215.55 1583.36 2245.85C1560.53 2276.16 1529.74 2299.96 1490.99 2317.28C1452.17 2334.66 1410 2343.32 1364.4 2343.32C1318.11 2343.32 1276.71 2334.66 1240.27 2317.28V2317.35Z" fill="#231F20"/>
<path d="M1714.41 2322.65C1669.45 2305.76 1634.74 2282.3 1610.31 2252.28C1585.87 2222.25 1574.28 2188.25 1575.61 2150.2C1576.24 2114.52 1589.29 2081.71 1614.71 2051.62C1640.12 2021.59 1675.31 1997.65 1720.27 1979.77C1765.24 1961.97 1815.72 1953.03 1871.78 1953.03C1933.01 1953.03 1985.52 1962.32 2029.15 1980.82C2072.79 1999.39 2105.75 2023.76 2127.88 2054.06C2150.01 2084.36 2160.76 2116.62 2160.13 2150.83C2158.81 2166.82 2156.85 2177.36 2154.27 2182.53H1717.27C1719.85 2208.36 1735.7 2228.75 1764.68 2243.76C1793.65 2258.77 1830.66 2266.31 1875.62 2266.31C1906.27 2266.31 1934.27 2262.05 1959.68 2253.67C1985.1 2245.22 2005.62 2234.68 2021.26 2221.97L2126.83 2267.71C2100.09 2291.65 2063.92 2310.99 2018.33 2325.8C1972.67 2340.6 1923.52 2348 1870.73 2348C1811.39 2348 1759.3 2339.55 1714.34 2322.65H1714.41ZM2019.45 2119.9C2018.82 2104.89 2012.61 2090.78 2000.88 2077.66C1989.15 2064.53 1972.67 2053.85 1951.51 2045.61C1930.29 2037.44 1905.36 2033.32 1876.74 2033.32C1837.01 2033.32 1803.08 2041.21 1775.08 2056.92C1747.01 2072.63 1728.44 2093.65 1719.37 2119.9H2019.52H2019.45Z" fill="#231F20" stroke="#FDBB2D" stroke-width="4" stroke-miterlimit="10"/>
<path d="M2177.8 1822.82H2323.44V2348H2177.8V1822.82Z" fill="#231F20" stroke="#FDBB2D" stroke-miterlimit="10"/>
<path d="M3033.01 2321.61C2987.35 2304.01 2951.67 2280.07 2925.98 2249.83C2900.22 2219.53 2887.02 2186.37 2886.39 2150.2C2887.02 2113.62 2900.57 2080.24 2926.96 2050.22C2953.35 2020.2 2989.52 1996.46 3035.46 1979.14C3081.4 1961.76 3132.72 1953.1 3189.41 1953.1C3246.1 1953.1 3300.21 1961.76 3345.8 1979.14C3391.4 1996.53 3426.79 2020.2 3451.86 2050.22C3476.92 2080.24 3489.49 2113.62 3489.49 2150.2C3488.86 2186.37 3475.46 2219.53 3449.42 2249.83C3423.37 2280.13 3387.35 2304.01 3341.41 2321.61C3295.46 2339.2 3243.8 2348 3186.41 2348C3129.71 2348 3078.54 2339.2 3032.87 2321.61H3033.01Z" fill="#231F20" stroke="#FDBB2D" stroke-miterlimit="10"/>
<path d="M2417.35 2322.65C2372.38 2305.76 2337.68 2282.3 2313.25 2252.28C2288.81 2222.25 2277.22 2188.25 2278.55 2150.2C2279.18 2114.52 2292.23 2081.71 2317.65 2051.62C2343.06 2021.59 2378.25 1997.65 2423.21 1979.77C2468.18 1961.97 2518.66 1953.03 2574.72 1953.03C2635.95 1953.03 2688.46 1962.32 2732.09 1980.82C2775.73 1999.39 2808.68 2023.76 2830.82 2054.06C2852.95 2084.36 2863.7 2116.62 2863.07 2150.83C2861.75 2166.82 2859.79 2177.36 2857.21 2182.53H2420.21C2422.79 2208.36 2438.64 2228.75 2467.62 2243.76C2496.59 2258.77 2533.6 2266.31 2578.56 2266.31C2609.21 2266.31 2637.21 2262.05 2662.62 2253.67C2688.04 2245.22 2708.56 2234.68 2724.2 2221.97L2829.77 2267.71C2803.03 2291.65 2766.86 2310.99 2721.27 2325.8C2675.61 2340.6 2626.46 2348 2573.67 2348C2514.33 2348 2462.24 2339.55 2417.28 2322.65H2417.35ZM2722.39 2119.9C2721.76 2104.89 2715.55 2090.78 2703.82 2077.66C2692.09 2064.53 2675.61 2053.85 2654.45 2045.61C2633.23 2037.44 2608.3 2033.32 2579.68 2033.32C2539.95 2033.32 2506.02 2041.21 2478.02 2056.92C2449.95 2072.63 2431.38 2093.65 2422.31 2119.9H2722.46H2722.39Z" fill="#231F20" stroke="#FDBB2D" stroke-width="4" stroke-miterlimit="10"/>
<path d="M2786.62 1451.17C2765.26 1441.05 2753.11 1416.19 2752.34 1395.87C2751.08 1362.15 2788.58 1349.44 2786.83 1312.79C2785.92 1293.1 2775.03 1289.05 2776.15 1265.73C2777.2 1243.11 2788.3 1228.66 2784.11 1223.21C2779.71 1217.49 2766.86 1232.57 2758 1225.79C2748.57 1218.6 2751.99 1193.4 2748.22 1192.84C2743.75 1192.14 2739.22 1226.49 2732.37 1226.49C2725.25 1226.49 2721.76 1189.42 2714.71 1189.7C2709.33 1189.91 2707.31 1211.34 2701.86 1211.27C2696.35 1211.27 2693.62 1189.28 2689.57 1189.7C2685.31 1190.19 2687.97 1214.41 2678.68 1221.47C2669.12 1228.73 2654.31 1211.9 2649.64 1218.32C2645.73 1223.7 2654.73 1237.1 2650.61 1244.37C2645.03 1254.07 2621.99 1241.43 2620.03 1246.95C2618.22 1251.98 2637.49 1261.33 2637.84 1277.88C2638.05 1287.51 2631.55 1290.17 2629.95 1306.16C2629.18 1313.7 2629.95 1319.42 2630.79 1325.64C2631.55 1331.29 2633.79 1347.77 2641.12 1359.92C2653.06 1379.88 2669.61 1373.11 2673.1 1384.7C2677.91 1400.69 2653.97 1438.32 2622.9 1451.03C2593.08 1463.25 2579.19 1449.15 2548.96 1461.36C2515.17 1474.98 2522.71 1496.55 2494.29 1511.21C2446.46 1535.79 2402.34 1486.43 2336.57 1511.63C2327.56 1515.05 2300.68 1525.39 2297.61 1544.94C2295.79 1556.67 2302.71 1570.42 2314.02 1576.71C2334.96 1588.37 2355.98 1566.02 2399.27 1557.16C2467.34 1543.19 2496.1 1581.87 2535.34 1559.67C2562.22 1544.45 2556.22 1522.04 2587.78 1508.35C2614.45 1496.76 2649.99 1499.28 2656.06 1511.77C2664.23 1528.6 2612.77 1550.31 2616.05 1585.78C2617.87 1605.26 2634.14 1607.29 2652.5 1633.82C2654.45 1636.61 2695.72 1698.26 2668.07 1757.33C2663.95 1766.19 2644.96 1803.34 2606.7 1814.16C2573.88 1823.45 2557.55 1804.73 2533.39 1817.09C2504.27 1831.96 2516.14 1865.27 2488.42 1878.05C2464.55 1889.08 2448.63 1867.64 2406.18 1878.18C2395.36 1880.91 2377.9 1885.52 2367.29 1900.39C2360.52 1909.95 2353.6 1927.76 2362.75 1940.53C2373.85 1956.1 2400.94 1953.31 2404.57 1952.89C2433.27 1949.61 2435.15 1929.15 2465.03 1922.17C2493.73 1915.47 2504.2 1931.46 2522.71 1922.17C2547.07 1910.02 2536.88 1878.6 2558.66 1868.13C2581.98 1856.96 2602.86 1888.52 2636.37 1881.82C2665.07 1876.09 2681.34 1846.56 2701.93 1809.2C2711.78 1791.4 2723.44 1770.1 2727.83 1740.5C2736.42 1682.13 2708.77 1644.36 2720.5 1638.08C2730.56 1632.7 2760.09 1655.39 2777.27 1682.27C2792.7 1706.43 2787.11 1716.55 2804.08 1761.1C2815.74 1791.68 2821.53 1806.97 2833.89 1819.19C2858.96 1843.83 2899.24 1854.17 2932.54 1852.21C2965.36 1850.33 2975.69 1837.41 3002.36 1844.04C3013.67 1846.84 3034.41 1852.77 3043.14 1874.14C3046.84 1883.21 3049.84 1898.78 3047.68 1914.49C3046.14 1925.59 3043 1929.85 3043.7 1939.9C3044.53 1951.98 3050.19 1960.43 3053.54 1965.25C3070.58 1990.17 3104.51 2005.47 3112.61 1993.04C3117.15 1986.13 3108.21 1979 3104.79 1947.38C3102.07 1922.31 3105.98 1910.93 3102.35 1867.92C3101.86 1862.55 3101.72 1859.82 3101.44 1858.77C3096.27 1838.53 3074.49 1827.71 3031.2 1806.34C2998.94 1790.35 2979.04 1780.51 2951.95 1781.55C2913.2 1783.09 2898.4 1805.5 2878.64 1796.92C2866.64 1791.68 2863.56 1779.74 2853.3 1741.62C2828.72 1650.02 2827.05 1646.45 2822.51 1640.66C2791.72 1601.84 2741.8 1611.13 2736.84 1584.04C2732.86 1562.32 2761.84 1539.56 2775.8 1528.6C2795.63 1513.03 2815.6 1506.68 2829.7 1502.21C2854.49 1494.32 2866.84 1490.41 2879.83 1494.18C2906.99 1502.07 2900.22 1530.97 2928.36 1546.26C2960.05 1563.58 2989.73 1538.3 3015.14 1558.06C3032.18 1571.33 3027.57 1589.48 3041.95 1593.11C3057.31 1597.02 3081.33 1581.03 3083.84 1562.6C3086.91 1540.12 3056.96 1523.15 3051.03 1519.73C3014.23 1498.86 2990.91 1520.15 2955.38 1503.33C2918.02 1485.59 2928.43 1454.8 2895.68 1442.51C2855.18 1427.36 2823.07 1468.35 2786.48 1451.03L2786.62 1451.17Z" fill="#231F20" stroke="#FDBB2D" stroke-width="4" stroke-miterlimit="10"/>
</g>
<defs>
<clipPath id="clip0_2016_184">
<rect width="3564" height="2487" fill="white" transform="translate(0 0.09375)"/>
</clipPath>
</defs>
</svg>
