<?xml version="1.0" encoding="UTF-8"?>
<svg id="Gotham-UltraItalic" xmlns="http://www.w3.org/2000/svg" viewBox="0 0 500 300">
  <defs>
    <style>
      .cls-1 {
        fill: #4994d0;
      }

      .cls-1, .cls-2, .cls-3 {
        stroke-width: 0px;
      }

      .cls-2 {
        fill: #231f20;
      }

      .cls-3 {
        fill: #ed2024;
      }
    </style>
  </defs>
  <rect class="cls-1" x=".24" y="0" width="499.53" height="300"/>
  <g>
    <path class="cls-2" d="m127.91,164.91l7.2-9.36c3.53,2.81,9.65,5.33,14.11,5.33,1.66,0,2.3-.65,2.3-1.37,0-1.3-1.22-1.94-6.12-3.74-6.34-2.3-10.73-5.18-10.73-11.38,0-7.85,6.62-14.11,18.43-14.11,7.92,0,14.62,2.38,18.58,5.4l-7.2,9.36c-3.02-2.09-8.06-4.18-11.95-4.18-1.8,0-2.59.5-2.59,1.3,0,1.08.86,1.51,5.69,3.24,6.26,2.23,11.16,4.97,11.16,11.88,0,6.55-4.61,14.19-17.86,14.19-8.93,0-16.2-2.88-21.03-6.55Z"/>
    <path class="cls-2" d="m174.14,131.21h16.35l-1.08,4.03c2.81-2.88,7.06-4.97,11.23-4.97,6.98,0,12.89,5.62,12.89,15.34,0,14.33-9.14,25.85-20.67,25.85-5.62,0-9.29-2.52-11.52-5.98l-4.46,16.56h-16.35l13.61-50.84Zm23.11,18c0-3.38-2.23-5.62-5.26-5.62-4.46,0-7.7,4.25-7.7,8.86,0,3.38,2.23,5.62,5.26,5.62,4.46,0,7.7-4.25,7.7-8.86Z"/>
    <path class="cls-2" d="m233.75,159.94c2.66,0,5.19-1.08,7.92-3.17l7.56,8.28c-4.46,3.96-9.94,6.41-16.85,6.41-11.95,0-19.3-6.98-19.3-17.28,0-11.95,8.93-23.91,23.91-23.91,12.96,0,17.28,8.78,17.28,17.07,0,2.59-.43,5.11-1.15,7.34h-25.27c.22,3.17,2.23,5.26,5.9,5.26Zm6.19-12.46c.22-.58.29-1.15.29-1.73,0-2.16-1.58-4.18-4.25-4.18-2.45,0-5.62,1.51-7.13,5.9h11.09Z"/>
    <path class="cls-2" d="m263.63,119.51h16.34l-14.11,52.56h-16.35l14.11-52.56Z"/>
    <g>
      <path class="cls-2" d="m312.5,153.41c0-12.02,18.45-22.9,44.04-22.9,23.17,0,36.77,8.06,36.77,18.29,0,12.02-18.45,22.9-44.04,22.9-23.17,0-36.77-8.06-36.77-18.29Zm51.99-5.48c0-2.39-3.91-4.1-9.83-4.1-7.68,0-13.33,3.01-13.33,6.38,0,2.39,3.91,4.1,9.83,4.1,7.68,0,13.33-3.01,13.33-6.38Z"/>
      <path class="cls-3" d="m364.49,147.94c0-2.39-3.91-4.1-9.83-4.1-7.68,0-13.33,3.01-13.33,6.38,0,2.39,3.91,4.1,9.83,4.1,7.68,0,13.33-3.01,13.33-6.38Z"/>
    </g>
    <path class="cls-2" d="m292.3,160.55c2.66,0,5.19-1.08,7.92-3.17l7.56,8.28c-4.46,3.96-9.94,6.41-16.85,6.41-11.95,0-19.3-6.98-19.3-17.28,0-11.95,8.93-23.91,23.91-23.91,12.96,0,17.28,8.78,17.28,17.07,0,2.59-.43,5.11-1.15,7.34h-25.27c.22,3.17,2.23,5.26,5.9,5.26Zm6.19-12.46c.22-.58.29-1.15.29-1.73,0-2.16-1.58-4.18-4.25-4.18-2.45,0-5.62,1.51-7.13,5.9h11.09Z"/>
  </g>
</svg>