<svg width="48" height="48" viewBox="0 0 48 48" fill="none" xmlns="http://www.w3.org/2000/svg">
<g clip-path="url(#clip0_85_782)">
<path d="M8.82409 10.2269C8.582 11.8178 8.32781 13.3518 8.06151 14.8291H8.09782C9.6956 9.54515 11.3781 6.90319 13.1453 6.90319C13.9926 6.90319 14.4405 8.01111 14.4889 10.2269C16.353 4.60212 18.3018 1.78971 20.3353 1.78971C21.2795 1.78971 21.7515 2.8124 21.7515 4.8578C21.7515 6.10776 21.4247 8.60768 20.7711 12.3576C19.5364 19.5164 18.2171 27.8116 16.813 37.2431C15.3362 38.0954 13.7748 39.0328 12.1286 40.0555C13.2906 32.0444 14.4526 24.5731 15.6146 17.6415C15.9293 15.7097 16.0867 14.5166 16.0867 14.062C16.0867 13.5507 15.9778 13.295 15.7599 13.295C14.7915 13.295 13.8958 15.7949 13.0727 20.7948C11.8381 28.5218 10.7971 35.425 9.94979 41.5043L5.8101 44.2315C6.73003 37.3567 7.79522 30.0558 9.00565 22.3288C9.27195 20.6243 9.40509 19.4596 9.40509 18.8346C9.40509 18.2096 9.29615 17.8971 9.07828 17.8971C8.25518 17.8971 7.54102 19.8573 6.93581 23.7776C5.89483 30.4251 4.86596 37.6692 3.84919 45.5099C2.34825 46.4758 1.06518 47.2712 0 47.8962C0.435758 39.3737 0.895724 25.9367 1.3799 7.58498C3.82498 8.38041 6.30638 9.26106 8.82409 10.2269ZM40.577 41.5043C39.0277 41.4475 37.4057 41.4191 35.7111 41.4191L35.2753 19.0051H35.2027C34.5249 22.8686 33.0724 30.3683 30.8452 41.5043C29.1021 41.618 27.3228 41.7316 25.5071 41.8452L23.6552 0.25567C25.9308 0.0852234 28.049 0 30.01 0H30.6273C30.7483 4.54531 30.942 11.3065 31.2083 20.2834H31.2809C32.4913 14.0905 33.7381 7.38612 35.0212 0.170446C36.5947 0.227263 38.1562 0.340895 39.7055 0.511345L40.4681 20.5391C41.6543 13.8348 42.7439 7.35772 43.7365 1.10792C45.0437 1.33518 46.351 1.59085 47.6583 1.87494C45.6489 14.9427 43.2886 28.1525 40.577 41.5043Z" fill="#0000CD"/>
</g>
<defs>
<clipPath id="clip0_85_782">
<rect width="48" height="48" fill="white"/>
</clipPath>
</defs>
</svg>
